#!OML:ASF F:\VICON\USERDATA\INSTALL\rory3\rory3.ASF
:FULLY-SPECIFIED
:DEGREES
32
root 0.310424 18.9078 -13.0543 2.48308 -7.1565 0.182988
lowerback 1.00896 0.499039 -1.35333
upperback -0.756099 0.630394 -1.03422
thorax -1.34268 0.322388 -0.31424
lowerneck -7.9143 -6.06773 -10.6709
upperneck 14.2723 -8.27751 9.46295
head 6.47133 -3.92058 4.08308
rclavicle -2.12451e-015 7.15625e-015
rhumerus -32.7411 -0.845737 -83.5498
rradius 26.6857
rwrist 18.1156
rhand -24.326 1.63621
rfingers 7.12502
rthumb 2.16252 -28.3326
lclavicle -2.12451e-015 7.15625e-015
lhumerus -34.1764 24.2205 73.0625
lradius 20.2584
lwrist -8.58341
lhand -17.9125 27.538
lfingers 7.12502
lthumb 8.35478 57.3528
rfemur -4.07717 21.3315 19.2371
rtibia 15.8188
rfoot -12.6314 -18.5237
rtoes -3.93514
lfemur -0.300141 -8.26767 -19.9404
ltibia 12.561
lfoot -14.452 19.9476
ltoes -3.41311
33
root 0.310008 18.9078 -13.0533 2.47441 -7.15534 0.185
lowerback 0.935412 0.505485 -1.35061
upperback -0.698564 0.641534 -1.03837
thorax -1.24243 0.327372 -0.319118
lowerneck -7.94904 -6.06709 -10.6733
upperneck 14.2207 -8.27342 9.4897
head 6.46185 -3.91593 4.09156
rclavicle -6.80837e-015 -1.19271e-014
rhumerus -32.669 -0.89262 -83.533
rradius 26.7023
rwrist 18.1826
rhand -24.4838 1.48244
rfingers 7.12502
rthumb 2.01012 -28.4878
lclavicle -6.80837e-015 -1.19271e-014
lhumerus -34.0564 24.2332 73.1016
lradius 20.2009
lwrist -8.59906
lhand -17.8731 27.5389
lfingers 7.12502
lthumb 8.39281 57.3521
rfemur -4.07904 21.298 19.2417
rtibia 15.8359
rfoot -12.6058 -18.5148
rtoes -4.0517
lfemur -0.286346 -8.26937 -19.9429
ltibia 12.558
lfoot -14.48 19.9294
ltoes -3.30194
34
root 0.308711 18.9077 -13.0532 2.48987 -7.1488 0.151504
lowerback 0.866945 0.511826 -1.32188
upperback -0.653931 0.652688 -1.03257
thorax -1.15808 0.332301 -0.328475
lowerneck -8.00466 -6.07127 -10.6472
upperneck 14.1946 -8.27451 9.4844
head 6.4621 -3.91387 4.08395
rclavicle 5.82688e-015 2.22639e-014
rhumerus -32.6046 -0.916856 -83.5333
rradius 26.7405
rwrist 18.1795
rhand -24.6181 1.47098
rfingers 7.12502
rthumb 1.8804 -28.5005
lclavicle 5.82688e-015 2.22639e-014
lhumerus -33.9289 24.2469 73.1387
lradius 20.1198
lwrist -8.60243
lhand -17.9135 27.3459
lfingers 7.12502
lthumb 8.35382 57.1607
rfemur -4.09926 21.3088 19.2806
rtibia 15.8521
rfoot -12.6278 -18.5323
rtoes -4.01439
lfemur -0.328454 -8.20769 -19.8849
ltibia 12.5914
lfoot -14.4705 19.8483
ltoes -3.3557
35
root 0.308723 18.9064 -13.052 2.50415 -7.16044 0.185023
lowerback 0.865538 0.520073 -1.38505
upperback -0.671447 0.662601 -1.02628
thorax -1.17609 0.337907 -0.286965
lowerneck -7.99852 -6.07782 -10.6499
upperneck 14.2107 -8.28077 9.45947
head 6.46589 -3.9189 4.07582
rclavicle 1.51822e-014 -2.34566e-014
rhumerus -32.6061 -0.954722 -83.4967
rradius 26.7095
rwrist 18.2715
rhand -24.6807 1.81509
rfingers 7.12502
rthumb 1.81991 -28.1569
lclavicle 1.51822e-014 -2.34566e-014
lhumerus -33.9335 24.2288 73.1573
lradius 20.107
lwrist -8.53479
lhand -17.8117 27.0962
lfingers 7.12502
lthumb 8.45205 56.907
rfemur -4.11136 21.2956 19.2338
rtibia 15.845
rfoot -12.6142 -18.5222
rtoes -3.96592
lfemur -0.393398 -8.09879 -19.9113
ltibia 12.6798
lfoot -14.4504 19.7736
ltoes -3.56318
36
root 0.308271 18.9061 -13.0524 2.49946 -7.15745 0.153708
lowerback 0.937368 0.517514 -1.37177
upperback -0.685952 0.657753 -1.01078
thorax -1.23125 0.335711 -0.279282
lowerneck -8.05243 -6.0755 -10.6206
upperneck 14.2653 -8.27337 9.41667
head 6.48875 -3.9151 4.05658
rclavicle 8.65956e-015 1.19271e-014
rhumerus -32.5956 -0.917559 -83.4996
rradius 26.7086
rwrist 18.3281
rhand -24.4727 1.69043
rfingers 7.12502
rthumb 2.02087 -28.2797
lclavicle 8.65956e-015 1.19271e-014
lhumerus -33.94 24.2801 73.1561
lradius 20.0949
lwrist -8.56293
lhand -17.752 27.1405
lfingers 7.12502
lthumb 8.50967 56.9491
rfemur -4.08451 21.2456 19.2735
rtibia 15.8249
rfoot -12.6154 -18.4581
rtoes -3.86113
lfemur -0.434463 -7.96782 -19.8617
ltibia 12.7743
lfoot -14.4808 19.6374
ltoes -3.48826
37
root 0.307843 18.9062 -13.053 2.51076 -7.13303 0.0864289
lowerback 0.983184 0.51292 -1.3048
upperback -0.684524 0.651877 -0.996655
thorax -1.25484 0.332362 -0.302654
lowerneck -8.10575 -6.07359 -10.6201
upperneck 14.2579 -8.27233 9.46029
head 6.4974 -3.90997 4.06947
rclavicle -5.44173e-015 7.15625e-015
rhumerus -32.5677 -0.935463 -83.5051
rradius 26.7352
rwrist 18.3428
rhand -24.9063 2.25137
rfingers 7.12502
rthumb 1.60204 -27.7224
lclavicle -5.44173e-015 7.15625e-015
lhumerus -33.9387 24.278 73.1747
lradius 20.1305
lwrist -8.54598
lhand -17.8099 27.0572
lfingers 7.12502
lthumb 8.45383 56.868
rfemur -4.06171 21.2431 19.3551
rtibia 15.7937
rfoot -12.6109 -18.4756
rtoes -3.76046
lfemur -0.482011 -7.98669 -19.782
ltibia 12.8598
lfoot -14.5741 19.6357
ltoes -3.47355
38
root 0.306662 18.9064 -13.0512 2.50642 -7.12954 0.0549356
lowerback 0.987917 0.511464 -1.28852
upperback -0.672417 0.650519 -0.977342
thorax -1.24512 0.33157 -0.291933
lowerneck -8.12765 -6.07324 -10.5969
upperneck 14.2442 -8.26337 9.40852
head 6.49279 -3.90745 4.04906
rclavicle -6.83322e-016 -1.07344e-014
rhumerus -32.5265 -0.930738 -83.4952
rradius 26.6946
rwrist 18.3475
rhand -25.9819 3.93646
rfingers 7.12502
rthumb 0.563188 -26.0425
lclavicle -6.83322e-016 -1.07344e-014
lhumerus -33.9595 24.248 73.2188
lradius 20.2052
lwrist -8.57298
lhand -17.85 27.0188
lfingers 7.12502
lthumb 8.41505 56.8312
rfemur -4.03843 21.3226 19.3982
rtibia 15.7627
rfoot -12.65 -18.5427
rtoes -3.72111
lfemur -0.495712 -8.01196 -19.7491
ltibia 12.925
lfoot -14.6582 19.7191
ltoes -3.70964
39
root 0.305907 18.9061 -13.0503 2.50187 -7.14327 0.0242343
lowerback 0.989195 0.522589 -1.26227
upperback -0.670227 0.665797 -0.975277
thorax -1.24338 0.33898 -0.304835
lowerneck -8.13451 -6.05527 -10.548
upperneck 14.2791 -8.24293 9.38108
head 6.49957 -3.89666 4.03417
rclavicle -2.23012e-014 -5.1684e-015
rhumerus -32.5036 -0.957684 -83.4912
rradius 26.6484
rwrist 18.3939
rhand -26.3898 4.67758
rfingers 7.12502
rthumb 0.16928 -25.3021
lclavicle -2.23012e-014 -5.1684e-015
lhumerus -33.9565 24.235 73.2223
lradius 20.1926
lwrist -8.65107
lhand -17.8771 27.1623
lfingers 7.12502
lthumb 8.38897 56.9757
rfemur -4.03861 21.3624 19.4368
rtibia 15.7588
rfoot -12.6087 -18.5729
rtoes -3.89649
lfemur -0.486927 -8.04443 -19.7184
ltibia 12.9286
lfoot -14.6512 19.8181
ltoes -3.94679
40
root 0.305054 18.9061 -13.0494 2.5083 -7.141 -0.00795646
lowerback 0.987344 0.524206 -1.24269
upperback -0.662573 0.66859 -0.960575
thorax -1.23445 0.34023 -0.300731
lowerneck -8.22866 -6.04041 -10.4898
upperneck 14.3571 -8.21497 9.30698
head 6.53221 -3.88241 4.00115
rclavicle -1.30949e-014 7.95139e-015
rhumerus -32.4136 -1.01602 -83.4748
rradius 26.5677
rwrist 18.4537
rhand -26.2216 4.34415
rfingers 7.12502
rthumb 0.331754 -25.6353
lclavicle -1.30949e-014 7.95139e-015
lhumerus -33.9161 24.2538 73.228
lradius 20.1194
lwrist -8.68092
lhand -17.9704 27.1796
lfingers 7.12502
lthumb 8.29886 56.9966
rfemur -4.03707 21.3608 19.4776
rtibia 15.7724
rfoot -12.639 -18.5543
rtoes -3.80005
lfemur -0.486674 -8.06455 -19.6824
ltibia 12.9031
lfoot -14.585 19.8797
ltoes -4.20039
